<svg xmlns="http://www.w3.org/2000/svg" xml:space="preserve" width="339.235" height="339.235" style="shape-rendering:geometricPrecision;text-rendering:geometricPrecision;image-rendering:optimizeQuality;fill-rule:evenodd;clip-rule:evenodd" viewBox="0 0 8025 8025"><defs><clipPath id="id0"><path d="M4012.5 0C6228.54 0 8025 1796.46 8025 4012.5S6228.54 8025 4012.5 8025 0 6228.54 0 4012.5 1796.46 0 4012.5 0z"/></clipPath><clipPath id="id1"><path d="m4881.34 2491.86 999.65-1011.82 993.52 993.53-420.57 408.38H5253.16l-371.82-390.09z"/></clipPath><clipPath id="id2"><path d="M4012.5 0C6228.54 0 8025 1796.46 8025 4012.5S6228.54 8025 4012.5 8025 0 6228.54 0 4012.5 1796.46 0 4012.5 0z"/></clipPath><style>.fil3{fill:none}.fil1,.fil2{fill:#f9ab93}.fil1{fill-rule:nonzero}</style></defs><g id="Layer_x0020_1"><path d="M4012.5 0C6228.54 0 8025 1796.46 8025 4012.5S6228.54 8025 4012.5 8025 0 6228.54 0 4012.5 1796.46 0 4012.5 0z" style="fill:#000"/><g style="clip-path:url(#id0)"><g id="_1304175260576"><path id="_1" class="fil1" d="M3126.84 4273.84h130.22v-107.2h-130.22z"/><path class="fil1" d="M3143.43 4420.37h130.2v-107.13h-130.2zM2950.58 2643.85v65.74h49.34zM2998.75 2763.07v107.27h130.26v-30.29l-57.8-76.98zM3045.91 3818.4h130.16v-107.24h-130.16zM3105.23 4124.86h130.23v-107.24h-130.23zM3078.4 3973.03h130.16v-107.22H3078.4zM3131.59 3353.39h130.26v-107.28h-130.26zM3243.31 3826.53h130.31v-107.3h-130.31zM3210.19 3670.91h130.31v-107.26h-130.31zM3043.11 3031.16h130.26v-107.18h-130.26zM3271.52 3979.58h130.25v-107.26h-130.25zM3087.91 3192.47h130.26v-107.19h-130.26zM3008.2 3661.06h130.14v-107.27H3008.2zM3172.64 3513.08h130.25v-107.26h-130.25zM3155.78 4551.79l9.68 12.95h120.48v-107.23h-130.16zM2841.81 3806.68h130.41v-107.31h-130.41zM2879.8 3963.68h130.46v-107.26H2879.8zM3294.91 4129.99h130.26v-107.27h-130.26zM2911.38 4117.52h130.46v-107.27h-130.46zM2691.43 3317.85h130.43v-107.22h-130.43zM2747.11 3483.45h130.46v-107.26h-130.46zM2797.45 3646.51h130.46v-107.26h-130.46zM2816.25 3011.95h130.14v-107.16h-130.14zM2868.02 3175.96h130.22v-107.18h-130.22zM2965.25 3501.13h130.22V3393.9h-130.22zM2918.19 3339.26h130.22v-107.21h-130.22zM2608.4 2334.1v25.72h19.17zM2709.29 2417.33h-42.36v107.18h122.71zM2764.44 2848.31h130.22v-107.26h-130.22zM2714.68 2685.73h130.08v-107.16h-130.08zM3433.61 3830.83h130.48v-107.3h-130.48zM3588.54 3676.53h130.32v-107.32h-130.32zM3617.38 3831.45h130.33v-107.31h-130.33zM3555.42 3519.12h130.37v-107.25h-130.37zM3313.46 4277.88h130.25v-107.22h-130.25zM3547.5 3252.68h-28.94v107.22h109.49zM3527.44 4849.69h130.3v-107.24h-130.3zM3641.85 3983.76h130.25v-107.28h-130.25zM3491.77 3200.63v7.7h5.82zM3661.6 4133.42h130.36v-107.27H3661.6zM3702.59 4709.7h130.25v-107.21h-130.25zM3706.08 4988.92h130.2v-107.17h-130.2zM3705.5 4849.77h130.3v-107.22h-130.3zM3677.23 4280.57h130.2v-107.25h-130.2zM3688.8 4425.4h130.35v-107.17H3688.8zM3697.14 4568.38h130.36v-107.21h-130.36zM3527.9 4988.88h130.43v-107.22H3527.9zM3247.37 2933.15v105.87h79.4zM3291.48 3092.8v107.18h130.37v-70.21l-27.68-36.97zM3331.58 3360.07h130.35v-107.22h-130.35zM3344.83 4708.76h130.23v-107.28h-130.23zM3327.67 4423.33h130.24V4316.2h-130.24zM3337.91 4566.9h130.32v-107.21h-130.32zM3369.24 3518.95h130.41v-107.22h-130.41zM3459.3 3983.1h130.35v-107.24H3459.3zM3496.91 4280.09h130.29v-107.22h-130.29zM3509.37 4425.03h130.37v-107.18h-130.37zM3403.51 3676.05h130.47v-107.31h-130.47zM3518.39 4568.09h130.31v-107.23h-130.31zM2631.64 3150.37h130.43V3043.2h-130.43zM3480.26 4132.85h130.37V4025.6h-130.37zM3524.27 4709.58h130.39v-107.26h-130.39zM545.23 2020.56h130.46v-107.21H545.23zM106.54 1992.2v-44.66H72.9zM362.61 1794.09h130.43V1686.8H362.61zM3699.94 5265.79h130.37v-107.14h-130.37zM1242.28 2048.59h130.34v-107.28h-130.34zM-893.85 1358.47v-86.06h-65.02zM-586.85 1505.75h130.34v-107.3h-130.34zM-297.52 1686.86l73.33 97.19h57.06v-107.23h-130.39zM922.51 2479.59h130.45v-107.22H922.51zM-109.06 1651.37H21.27v-107.26h-130.33zM1551.62 2974.64h130.35v-107.19h-130.35zM1264.49 2559.44h130.43v-107.27h-130.43zM735.18 2250.69h130.44v-107.17H735.18zM1412.82 2769.28h130.35v-107.15h-130.35zM1111.02 2346.95h130.41v-107.2h-130.41zM815.3 1927.54h130.34v-107.3H815.3zM958.51 2135.04h130.47V2027.8H958.51zM122.13 1901.44h130.25v-107.21H122.13zM2598.04 3939.49h5.56v-107.26h-86.43zM2416.18 3746.34l20.5 27.28h109.87v-107.27h-130.37zM2714 4039.55l51.82 68.64h78.63v-107.23H2714zM2874.93 4227.26v-73.33h-55.41zM2320.06 3660.44v-17.72h-13.38zM3100.9 4485.93v-32.15h-24.3zM355.92 2152.59l.27.26h130.08v-107.18H355.92zM3039.64 4416.21h47.64v-107.23h-128.51zM2569.27 2981.76h130.41v-107.17h-130.41zM895.58 2523.64v-3.47h-2.48zM696.19 2405.27h25.93V2298H615.37zM1678.33 3091.41l62.44 82.72h67.92v-107.26h-130.36zM1408.3 2921.12v-100.41h-75.78zM1920.88 3318.32v-59.08h-44.63zM2219.28 3580.91h36.55v-107.32h-117.58zM1100.56 2662.36l31.43 41.58h99.05v-107.21h-130.48zM2302.99 2940.92h130.42v-107.16h-130.42zM2005.51 2245.34h130.46v-107.3h-130.46zM2452 3289.49h130.52v-107.23H2452zM2146.44 2589.16h130.41V2482h-130.41zM2072.21 2415.48h130.49v-107.23h-130.49zM2224.34 2764.9h130.47v-107.27h-130.47zM2518.82 3460.17h130.42v-107.21h-130.42zM2379.52 3116.18h130.47V3009h-130.47zM2444.39 2645.07h130.46v-107.19h-130.46zM2386.71 2479.25h130.46v-107.21h-130.46zM2506.08 2813.02h130.47v-107.21h-130.47zM2578.92 3627.65h130.43V3520.4h-130.43zM2335.48 2209.37v107.26h130.41v-88.14l-14.31-19.12zM2676.54 3951.74h130.48v-107.27h-130.48zM2631.53 3791.56H2762v-107.3h-130.47zM1640.33 2155.32h130.33v-107.3h-130.33zM1836.17 3026.37h130.35v-107.15h-130.35zM1354.32 2240.87h130.35v-107.2h-130.35zM1942.55 3216.01h130.39v-107.2h-130.39zM2038.56 3400.65h130.3V3293.4h-130.3zM1475.48 2437.58h130.37v-107.17h-130.37zM2282.13 3432.18h130.35v-107.25h-130.35zM1720.9 2832.52h130.3v-107.17h-130.3zM1599.39 2635.74h130.39v-107.27h-130.39zM2201.68 3255.11H2332V3147.9h-130.32zM1727.13 2335.31h130.37V2228.1h-130.37zM2113.58 3074.3h130.36v-107.21h-130.36zM2353.75 3605.19h130.37v-107.3h-130.37zM1822.37 2519.35h130.36v-107.19h-130.36zM1921.2 2705.15h130.36v-107.27H1921.2zM2019.23 2890.61h130.36v-107.18h-130.36zM2936.89 4268.23h130.41v-107.22h-130.41zM4355.87 6094.75h130.43v-107.18h-130.43zM4302.48 6371.4h130.46v-107.21h-130.46zM4374.68 5956.55h130.46V5849.3h-130.46zM4331.9 6233.08h130.41v-107.22H4331.9zM4389.09 5818.37h130.48v-107.28h-130.48zM4407.22 5542.09h130.47v-107.26h-130.47zM4399.81 5680.11h130.5V5572.9h-130.5zM4068.79 7063.6h130.47v-107.13h-130.47zM4412.19 5403.86h130.41v-107.27h-130.41zM4007.95 7202.22h130.46v-107.16h-130.46zM3945.41 7340.86h130.5v-107.27h-130.5zM4225.98 6648.1h130.53v-107.23h-130.53zM4267.29 6509.69h130.49v-107.22h-130.49zM3883.56 7479.4h130.45v-107.18h-130.45zM4178.82 6786.6h130.48v-107.24h-130.48zM4126.16 6925.1h130.43v-107.27h-130.43zM4414.88 5265.4h130.45v-107.17h-130.45zM3436.52 7757.92h130.47v-107.26h-130.47zM3380.27 7896.46h130.59v-107.35h-130.59zM3504.18 7619.26h130.48v-107.24h-130.48zM3811.81 7064.29h130.5v-107.14h-130.5zM3736.07 7203.06h130.6v-107.28h-130.6zM3657.69 7341.77h130.42v-107.21h-130.42zM3579.24 7480.53h130.54v-107.27h-130.54zM4414.4 4987.19h130.46v-107.21H4414.4zM4415.5 5126.64h130.47V5019.4H4415.5zM3704.33 5127.6h130.29v-107.23h-130.29zM4379.23 4242.99v29.84h22.28zM4454.29 4337.17l-20.98-27.85h-45.64v107.18h120.97c-19.71-29.24-37.72-55.6-54.35-79.33zM4406.27 4705.27h130.45v-107.26h-130.45zM4398.45 4561.92h130.4v-107.23h-130.4zM4592.83 5126.21h130.29v-107.19h-130.29zM4316.73 7063.04h130.33V6955.9h-130.33zM4268.51 7201.54h130.26v-107.28h-130.26zM4219.33 7339.99h130.36v-107.18h-130.36zM4362.58 6924.57h130.2v-107.21h-130.2zM4442.61 6647.74h130.41v-107.21h-130.41zM4170.84 7478.5h130.41v-107.23h-130.41zM4404.73 6786.17h130.26v-107.14h-130.26zM5125.54 5541.92h127.61v-14.86l2.74-3.46v-88.94h-130.35zM4125.36 7616.95h130.27v-107.19h-130.27zM4578.89 4517.22c-2.55-3.92-4.49-6.74-6.97-10.52v52.53h130.35V4452h-80.43c-14.42 21.6-29.17 42.8-42.94 65.22zM4475.88 6509.38h130.31v-107.13h-130.31zM4051.89 7893.77h130.29v-107.3h-130.29zM4690.02 4412.77v-81.55c-20.44 26.42-40.56 53.31-60.26 81.55h60.26zM4084.95 7755.35h130.27v-107.21h-130.27zM4592.94 5265.23h130.39v-107.19h-130.39zM4587.07 4845.69h130.31v-107.2h-130.31zM4590.98 4986.44h130.2v-107.21h-130.2zM3882.7 6925.66h130.43v-107.22H3882.7zM4580.9 4703.45h130.35v-107.26H4580.9zM3729.25 7895.02h130.43v-107.34h-130.43zM3824.88 7618.07h130.45v-107.26h-130.45zM3772.46 7756.52h130.43v-107.21h-130.43zM4562.3 5956.42h130.25v-107.24H4562.3zM4591.3 5403.77h130.42V5296.5H4591.3zM4504.3 6371.19h130.32V6264H4504.3zM4528.02 6232.9h130.26v-107.25h-130.26zM4547.13 6094.62h130.43V5987.4h-130.43zM4587.76 5542.09h130.37v-107.3h-130.37zM4573.71 5818.27h130.25v-107.26h-130.25zM4582.11 5680.11h130.25V5572.9h-130.25zM4411.39 4846.86h130.35v-107.17h-130.35zM4055.85 4708.36h130.36v-107.27h-130.36zM4060.87 4988.36h130.3v-107.22h-130.3zM4059.4 4848.86h130.32v-107.22H4059.4zM4050.04 4566.38h130.36v-107.21h-130.36zM4013.01 4128.43h130.38v-107.26h-130.38zM4041.32 4422.64h130.31v-107.19h-130.31zM4029.18 4276.83h130.29v-107.25h-130.29zM3996.22 5956.77h130.36V5849.5h-130.36zM3992.26 3869.85v107.22h130.3v-52.31l-41.25-54.91zM4060.23 5127.25h130.43v-107.22h-130.43zM3968.74 6095.05h130.37v-107.24h-130.37zM4017.5 5818.48h130.32v-107.25H4017.5zM4052.79 5403.95h130.41v-107.19h-130.41zM4044.97 5542.17h130.35v-107.25h-130.35zM4033.4 5680.29h130.37v-107.26H4033.4zM3819.38 3981.63h130.25v-107.21h-130.25zM3839.13 4131.85h130.26v-107.21h-130.26zM3854.55 4279.4h130.26v-107.26h-130.26zM3934.14 6233.46h130.39v-107.27h-130.39zM3740.56 3472.64v47.66h35.98zM3866.12 4424.54h130.31v-107.16h-130.31zM3765.7 3565.35v107.26h130.31v-12.2l-71.3-95.06zM3794.87 3828.58h130.24v-107.25h-130.24zM3947.3 6787.08h130.46v-107.23H3947.3zM3872.84 5404.03h130.41v-107.27h-130.41zM3879 5265.79h130.31v-107.22H3879zM3969.92 3737.34v87.85h65.96zM3883.65 4988.75h130.36v-107.21h-130.36zM3879.75 4709.31H4010v-107.25h-130.25zM3882.87 4849.47h130.26v-107.19h-130.26zM3874.31 4567.78h130.36v-107.23h-130.36zM3882.49 5127.51h130.26v-107.23h-130.26zM4232.64 5403.95h130.46v-107.27h-130.46zM4216.85 5680.2h130.45v-107.21h-130.45zM4226.31 5542.14h130.35v-107.22h-130.35zM4236.35 5265.53h130.56V5158.4h-130.56zM4235.44 4847.95h130.5v-107.22h-130.5zM4237.62 4987.84h130.5v-107.21h-130.5zM4237.97 5126.99h130.48v-107.22h-130.48zM4004.94 6648.45h130.52v-107.19h-130.52zM4098.01 6371.57h130.46v-107.12h-130.46zM4055.17 6509.99h130.47v-107.17h-130.47zM4203.6 5818.45h130.45v-107.31H4203.6zM4231.27 4706.92h130.43v-107.21h-130.43zM4185.84 5956.64h130.58v-107.26h-130.58zM4162.81 6094.88h130.37v-107.22h-130.37zM4133.7 6233.25h130.48v-107.27H4133.7zM3633.39 6926.27h130.37v-107.19h-130.37zM3547.24 7065.03h130.32v-107.09h-130.32zM3454.28 7203.96h130.4v-107.23h-130.4zM3891.75 6371.83h130.28v-107.21h-130.28zM3840.76 6510.29h130.33v-107.21h-130.33zM3711.51 6787.59h130.33v-107.21h-130.33zM3356.97 7342.89h130.37v-107.24h-130.37zM3780.7 6648.88h130.38v-107.17H3780.7zM3258.52 7481.74h130.42v-107.21h-130.42zM4201.59 4165.78v107.23h130.57v-92.28l-11.25-14.95zM4214.95 4419.85h130.48v-107.18h-130.48zM4200.31 4016.69h-15.52v107.26h96.13zM3076.23 7759.48h130.37v-107.22h-130.37zM3163.28 7620.69h130.37v-107.23h-130.37zM4224.56 4564.34h130.49v-107.21h-130.49zM3003.18 7898.19h130.39v-107.34h-130.39zM4057.74 5265.66h130.38v-107.18h-130.38zM4886.4 7891.2h127.62v-107.34H4886.4zM4900.67 7752.93h127.62v-107.18h-127.62zM4918.31 7614.78h127.67v-107.27h-127.67zM5004.25 7061.67h127.62v-107.16h-127.62zM4959.93 7338.24h127.66v-107.22h-127.66zM4982.17 7199.97h127.61v-107.23h-127.61zM4615.23 8015.17h130.42v-92.38h-130.42zM4770.73 5264.97h130.26v-107.18h-130.26zM4876.68 8014.42h127.68V7922h-127.68zM4767.19 4985.76h130.33v-107.23h-130.33zM4762.55 4844.47h130.29v-107.16h-130.29zM4769.89 5125.86h130.26v-107.25h-130.26zM4755.41 4701.58h130.32v-107.25h-130.32zM4333.32 8016.03h130.36v-92.42h-130.36zM4731.06 4408.74h130.33v-107.19h-130.33zM4745.16 4556.48h130.36v-107.22h-130.36zM4938.39 7476.45h127.67v-107.21h-127.67zM5303.74 5462.6l21.61-28.03h-21.61zM5025.32 6923.49h127.61v-107.26h-127.61zM5303.95 5403.43h45.32l82.88-107.23h-128.2zM5120.61 5818.14h127.63v-107.27h-127.63zM5650.41 4983.31h10.4l82.73-107.17h-93.13zM5477.58 5124.55h81.29l49.12-63.72v-43.45h-130.41zM5479.9 5231.42l57.48-74.41h-57.48zM5123.74 5680.03h127.61v-107.26h-127.61zM5062.31 6647h127.61v-107.21h-127.61zM5077.52 6508.82h127.61v-107.18h-127.61zM5044.71 6785.26h127.61v-107.23h-127.61zM5115.97 5956.25h127.61V5849h-127.61zM5109.58 6094.4h127.61v-107.27h-127.61zM5101.13 6232.51h127.59v-107.22h-127.59zM5090.52 6370.75h127.61V6263.5h-127.61zM4654.26 6647.45h130.36v-107.18h-130.36zM4712.21 4253.15v4.73h130.31v-107.26h-50.24zM4882.14 4252.76h130.35v-107.21h-130.35zM4903 4405.03h130.35v-107.18H4903zM4918.73 4553.87h130.37v-107.21h-130.37zM4822.5 4106.09v-33.7l-26.27 33.7zM4350.58 7892.73h130.33v-107.35h-130.33zM4406.75 7616.07h130.24v-107.21h-130.24zM4375.79 7754.44h130.26v-107.25h-130.26zM4948.26 5264.8h130.36v-107.17h-130.36zM4948.36 5403.6h130.37v-107.27h-130.37zM4946.9 5542h130.41v-107.26H4946.9zM4938.23 4843.34h130.32v-107.22h-130.32zM4930.2 4699.81h130.42v-107.24H4930.2zM4943.66 4985.02h130.37v-107.19h-130.37zM4946.84 5125.47h130.29v-107.21h-130.29zM4591.14 6924.14h130.26v-107.23h-130.26zM4736.55 6094.54h130.36v-107.22h-130.36zM4748.28 5956.38h130.29v-107.26h-130.29zM4721.61 6232.77h130.25V6125.5h-130.25zM4702.95 6371.01h130.27V6263.8h-130.27zM4767.56 5542h130.36v-107.26h-130.36zM4441.71 7477.66h130.41v-107.18h-130.41zM4763.45 5680.11h130.2v-107.29h-130.2zM4757.1 5818.18h130.26v-107.17H4757.1zM4555.18 7062.48h130.3v-107.13h-130.3zM4517.46 7200.88h130.36v-107.17h-130.36zM4479.22 7339.32h130.36v-107.24h-130.36zM4769.95 5403.64h130.3v-107.22h-130.3zM5643.39 4840.56h117.1l13.31-17.2v-90.02h-130.41zM4680.57 6509.17h130.25V6402h-130.25zM4624.3 6785.86h130.43v-107.27H4624.3zM4944.04 5680.08h130.32v-107.26h-130.32zM6260.59 3413.95h130.17v-107.28h-130.17zM5818.12 4760.8l22.55-29.2h-22.55zM3278.43 4707.37h16.27v-107.23h-97.08zM6464.55 3432.18h12.24l82.73-107.25h-94.97zM5990.74 3748.07h130.46v-107.32h-130.46zM5930.57 3568.87H6061v-107.33h-130.43zM5857.95 3381.14h130.41v-107.21h-130.41zM5972.29 4515.08l58.16-75.46h-58.16zM5955.34 4397.17h82.04l48.38-62.47v-44.71h-130.42zM5810.51 4695.6h46.22l82.82-107.23h-129.04zM6079.68 4084.94h117.9l12.47-16.3v-90.96h-130.37zM6110.65 4244.07h11.24l82.77-107.17h-94.01zM6056.76 3395.84h130.43v-107.23h-130.43zM6124.42 3580.2h130.43v-107.3h-130.43zM6365.12 3730.78l59.12-76.54h-59.12zM6180.78 3756.76h130.37v-107.31h-130.37zM6322.29 3594.19h82.93l47.23-61.43v-45.87h-130.16zM6251.98 4004.52l23.35-30.23h-23.35zM6226.99 3926.32h47.02l82.77-107.21h-129.79zM6040.06 3919.77h130.37v-107.22h-130.37zM5796.14 4547.67h130.37v-107.18h-130.37zM5776.64 4396.25h130.38v-107.21h-130.38zM5856.05 3915.2h130.35v-107.26h-130.35zM5804.6 3741.99h130.3v-107.3h-130.3zM5750.82 4240.56h130.38v-107.22h-130.38zM5540.28 4079.82h130.31v-107.28h-130.31zM5930.1 4241.86h130.31v-107.23H5930.1zM5741.68 3560.88h130.3v-107.27h-130.3zM5665.58 3370.81h130.29v-107.27h-130.29zM5717.38 4079.76h130.37v-107.24h-130.37zM5618.92 4547.7h130.37v-107.21h-130.37zM5633.19 4695.63h130.35v-107.26h-130.35zM5573.61 4240.59h130.36v-107.21h-130.36zM5897.34 4081.52h130.43v-107.29h-130.43zM5599.44 4396.25h130.35v-107.17h-130.35zM5622.72 3738.86h130.32v-107.27h-130.32zM5675.23 3912.86h130.37v-107.28h-130.37zM5558.3 3556.84h130.35v-107.27H5558.3zM5480.38 3365.5h130.43v-107.3h-130.43zM2831.2 7622.16h111.98v-107.23H2831.2zM2949.94 7483h111.93v-107.16h-111.93zM3300.3 7065.82h111.94v-107.14H3300.3zM3070.84 7343.95h111.98v-107.27h-111.98zM2627.25 7900.07h111.94v-107.32h-111.94zM3402.61 6926.92h111.94V6819.7h-111.94zM3188.9 7204.84h111.94v-107.18H3188.9zM3480.01 4968.9v-87.55h-66.09zM3525.89 5031.93l72.22 95.67h58.15v-107.23h-130.37zM3348.59 4794.87l40.94 54.29h89.37v-107.21h-130.31zM3796.12 5404.03h27.06v-107.18h-108.07zM3817.89 5439.92v-5h-3.69zM3863.47 5502.22l18.29 24.42v15.53h111.92v-107.21h-130.21zM3653.04 5204.98v-46.33h-34.87zM2721.08 7761.13H2833v-107.22h-111.92zM3868.49 5680.34h111.94v-107.27h-111.94zM2560.66 8023.8h112.01v-92.36h-112.01zM3341.3 8019.93h130.46v-92.32H3341.3zM2951.94 8021.79h130.37v-92.4h-130.37zM4029.18 8017.11h130.27v-92.4h-130.27zM3699.42 8018.41h130.45v-92.37h-130.45zM3575.4 6649.27h111.97v-107.22H3575.4zM3645.27 6510.59h111.92v-107.18h-111.92zM3494.46 6788.04h111.99v-107.2h-111.99zM3704.39 6372.11h111.92v-107.23h-111.92zM3753.5 6233.65h111.93v-107.28H3753.5zM3849.91 5818.57h111.93v-107.26h-111.93zM3825.23 5956.85h111.99V5849.6h-111.99zM3793.49 6095.19h111.93v-107.27h-111.93zM5075.56 4401.77h130.38V4294.6h-130.38zM4939.49 5818.18h130.3v-107.26h-130.3zM5092.67 4551.58h130.37v-107.22h-130.37zM4855.08 4002.26v94.02h130.42v-107.27h-120.05zM5023.42 4090.16h130.42v-107.28h-130.42zM4854.07 3934.05h96.05v-107.26h-12.38zM4986.35 3926.77h130.35v-107.28h-130.35zM5105.14 4698.24h130.42v-107.23h-130.42zM5052.74 4248.21h130.39v-107.23h-130.39zM5125.64 5264.61h130.35V5157.4h-130.35zM5018.19 3583.29v-74.11l-57.77 74.11zM4940.4 3712.1v45.1h130.3v-107.26h-81.92zM5114 4842.33h130.37v-107.21H5114zM5120.04 4984.4h130.25v-107.21h-130.25zM5123.74 5125.07h130.3v-107.16h-130.3zM5044.93 3569.35h130.19v-107.28h-130.19zM5126.21 5403.43h130.43v-107.18h-130.43zM4647.23 7753.64h130.38v-107.28h-130.38zM4860.89 6647.23h130.37v-107.21h-130.37zM4898.46 6370.84h130.35v-107.22h-130.35zM4933 5956.34h130.25v-107.25H4933zM4912.77 6232.69h130.3v-107.33h-130.3zM4837.76 6785.52h130.43v-107.2h-130.43zM4924.18 6094.49h130.31v-107.25h-130.31zM4881.24 6508.99h130.35v-107.17h-130.35zM4697.36 7477.01h130.3v-107.22h-130.3zM4670.73 7615.34h130.31v-107.21h-130.31zM4628.21 7891.91h130.42v-107.36h-130.42zM4726.05 7338.73h130.29v-107.26h-130.29zM4812.1 6923.75h130.35v-107.17H4812.1zM4784.31 7062.03h130.39v-107.17h-130.39zM4755.41 7200.41h130.32v-107.24h-130.32zM5302.91 5264.44h130.39v-107.17h-130.39zM5442.55 4548.41h130.54v-107.28h-130.54zM5456.66 4696.06h130.42v-107.21h-130.42zM5473.29 4983.49h130.48v-107.16h-130.48zM5324.4 3915.34h130.4v-107.25h-130.4zM5365.65 4081.63h130.42v-107.24h-130.42zM5466.48 4840.91h130.58v-107.22h-130.58zM5423.54 4397.26h130.4v-107.18h-130.4zM5398.19 4241.95h130.56v-107.19h-130.56zM5303.33 3365.59h130.32v-107.22h-130.32zM5381.23 3556.93h130.43V3449.6h-130.43zM5445.57 3738.95h130.32v-107.28h-130.32zM5300.69 5124.78h130.25v-107.22h-130.25zM5267.36 4549.7h130.29v-107.21h-130.29zM5290.12 4841.51h130.42v-107.24h-130.42zM5248.98 4399.12h130.34v-107.18h-130.34zM5280.78 4696.98h130.19v-107.27h-130.19zM5154 3920.06h130.35v-107.21H5154zM5224.83 4244.55h130.31v-107.22h-130.31zM5193.56 4085.16h130.23v-107.28h-130.23zM5498.12 3912.9h130.33v-107.26h-130.33zM5134.15 3371.19h130.5v-107.22h-130.5zM4975.09 3381.68h127.5v-107.23h-43.94zM5210.21 3561.22h130.41v-107.29h-130.41zM5273 3742.25h130.47v-107.32H5273zM5296.56 4983.89h130.37v-107.22h-130.37zM5104.93 3748.47h130.25v-107.32h-130.25z"/><g style="clip-path:url(#id1)"><path class="fil2" d="M5017.16 2331.49h91.72v94.77h-91.72zM4869.26 2331.49h91.72v94.77h-91.72zM5165.07 2331.49h91.72v94.77h-91.72zM5312.98 2331.49h91.72v94.77h-91.72zM5460.89 2331.49h91.72v94.77h-91.72zM5608.79 2331.49h91.72v94.77h-91.72zM5756.7 2331.49h91.72v94.77h-91.72zM5904.61 2331.49h91.72v94.77h-91.72zM6052.52 2331.49h91.72v94.77h-91.72zM6200.42 2331.49h91.72v94.77h-91.72zM6348.33 2331.49h91.72v94.77h-91.72zM6496.24 2331.49h91.72v94.77h-91.72zM6644.14 2331.49h91.72v94.77h-91.72zM6792.09 2331.49h91.72v94.77h-91.72z"/><g><path class="fil2" d="M5017.16 2195.71h91.72v94.77h-91.72zM4869.26 2195.71h91.72v94.77h-91.72zM5165.07 2195.71h91.72v94.77h-91.72zM5312.98 2195.71h91.72v94.77h-91.72zM5460.89 2195.71h91.72v94.77h-91.72zM5608.79 2195.71h91.72v94.77h-91.72zM5756.7 2195.71h91.72v94.77h-91.72zM5904.61 2195.71h91.72v94.77h-91.72zM6052.52 2195.71h91.72v94.77h-91.72zM6200.42 2195.71h91.72v94.77h-91.72zM6348.33 2195.71h91.72v94.77h-91.72zM6496.24 2195.71h91.72v94.77h-91.72zM6644.14 2195.71h91.72v94.77h-91.72zM6792.09 2195.71h91.72v94.77h-91.72z"/></g><g><path class="fil2" d="M5017.16 2059.94h91.72v94.77h-91.72zM4869.26 2059.94h91.72v94.77h-91.72zM5165.07 2059.94h91.72v94.77h-91.72zM5312.98 2059.94h91.72v94.77h-91.72zM5460.89 2059.94h91.72v94.77h-91.72zM5608.79 2059.94h91.72v94.77h-91.72zM5756.7 2059.94h91.72v94.77h-91.72zM5904.61 2059.94h91.72v94.77h-91.72zM6052.52 2059.94h91.72v94.77h-91.72zM6200.42 2059.94h91.72v94.77h-91.72zM6348.33 2059.94h91.72v94.77h-91.72zM6496.24 2059.94h91.72v94.77h-91.72zM6644.14 2059.94h91.72v94.77h-91.72zM6792.09 2059.94h91.72v94.77h-91.72z"/></g><g><path class="fil2" d="M5017.16 1924.16h91.72v94.77h-91.72zM4869.26 1924.16h91.72v94.77h-91.72zM5165.07 1924.16h91.72v94.77h-91.72zM5312.98 1924.16h91.72v94.77h-91.72zM5460.89 1924.16h91.72v94.77h-91.72zM5608.79 1924.16h91.72v94.77h-91.72zM5756.7 1924.16h91.72v94.77h-91.72zM5904.61 1924.16h91.72v94.77h-91.72zM6052.52 1924.16h91.72v94.77h-91.72zM6200.42 1924.16h91.72v94.77h-91.72zM6348.33 1924.16h91.72v94.77h-91.72zM6496.24 1924.16h91.72v94.77h-91.72zM6644.14 1924.16h91.72v94.77h-91.72zM6792.09 1924.16h91.72v94.77h-91.72z"/></g><g><path class="fil2" d="M5017.16 1788.39h91.72v94.77h-91.72zM4869.26 1788.39h91.72v94.77h-91.72zM5165.07 1788.39h91.72v94.77h-91.72zM5312.98 1788.39h91.72v94.77h-91.72zM5460.89 1788.39h91.72v94.77h-91.72zM5608.79 1788.39h91.72v94.77h-91.72zM5756.7 1788.39h91.72v94.77h-91.72zM5904.61 1788.39h91.72v94.77h-91.72zM6052.52 1788.39h91.72v94.77h-91.72zM6200.42 1788.39h91.72v94.77h-91.72zM6348.33 1788.39h91.72v94.77h-91.72zM6496.24 1788.39h91.72v94.77h-91.72zM6644.14 1788.39h91.72v94.77h-91.72zM6792.09 1788.39h91.72v94.77h-91.72z"/></g><g><path class="fil2" d="M5017.16 1652.61h91.72v94.77h-91.72zM4869.26 1652.61h91.72v94.77h-91.72zM5165.07 1652.61h91.72v94.77h-91.72zM5312.98 1652.61h91.72v94.77h-91.72zM5460.89 1652.61h91.72v94.77h-91.72zM5608.79 1652.61h91.72v94.77h-91.72zM5756.7 1652.61h91.72v94.77h-91.72zM5904.61 1652.61h91.72v94.77h-91.72zM6052.52 1652.61h91.72v94.77h-91.72zM6200.42 1652.61h91.72v94.77h-91.72zM6348.33 1652.61h91.72v94.77h-91.72zM6496.24 1652.61h91.72v94.77h-91.72zM6644.14 1652.61h91.72v94.77h-91.72zM6792.09 1652.61h91.72v94.77h-91.72z"/></g><g><path class="fil2" d="M5017.16 1516.84h91.72v94.77h-91.72zM4869.26 1516.84h91.72v94.77h-91.72zM5165.07 1516.84h91.72v94.77h-91.72zM5312.98 1516.84h91.72v94.77h-91.72zM5460.89 1516.84h91.72v94.77h-91.72zM5608.79 1516.84h91.72v94.77h-91.72zM5756.7 1516.84h91.72v94.77h-91.72zM5904.61 1516.84h91.72v94.77h-91.72zM6052.52 1516.84h91.72v94.77h-91.72zM6200.42 1516.84h91.72v94.77h-91.72zM6348.33 1516.84h91.72v94.77h-91.72zM6496.24 1516.84h91.72v94.77h-91.72zM6644.14 1516.84h91.72v94.77h-91.72zM6792.09 1516.84h91.72v94.77h-91.72z"/></g><g><path class="fil2" d="M5017.16 2467.26h91.72v94.77h-91.72zM4869.26 2467.26h91.72v94.77h-91.72zM5165.07 2467.26h91.72v94.77h-91.72zM5312.98 2467.26h91.72v94.77h-91.72zM5460.89 2467.26h91.72v94.77h-91.72zM5608.79 2467.26h91.72v94.77h-91.72zM5756.7 2467.26h91.72v94.77h-91.72zM5904.61 2467.26h91.72v94.77h-91.72zM6052.52 2467.26h91.72v94.77h-91.72zM6200.42 2467.26h91.72v94.77h-91.72zM6348.33 2467.26h91.72v94.77h-91.72zM6496.24 2467.26h91.72v94.77h-91.72zM6644.14 2467.26h91.72v94.77h-91.72zM6792.09 2467.26h91.72v94.77h-91.72z"/></g><g><path class="fil2" d="M5017.16 2603.04h91.72v94.77h-91.72zM4869.26 2603.04h91.72v94.77h-91.72zM5165.07 2603.04h91.72v94.77h-91.72zM5312.98 2603.04h91.72v94.77h-91.72zM5460.89 2603.04h91.72v94.77h-91.72zM5608.79 2603.04h91.72v94.77h-91.72zM5756.7 2603.04h91.72v94.77h-91.72zM5904.61 2603.04h91.72v94.77h-91.72zM6052.52 2603.04h91.72v94.77h-91.72zM6200.42 2603.04h91.72v94.77h-91.72zM6348.33 2603.04h91.72v94.77h-91.72zM6496.24 2603.04h91.72v94.77h-91.72zM6644.14 2603.04h91.72v94.77h-91.72zM6792.09 2603.04h91.72v94.77h-91.72z"/></g><g><path class="fil2" d="M5017.16 2738.83h91.72v94.77h-91.72zM4869.26 2738.83h91.72v94.77h-91.72zM5165.07 2738.83h91.72v94.77h-91.72zM5312.98 2738.83h91.72v94.77h-91.72zM5460.89 2738.83h91.72v94.77h-91.72zM5608.79 2738.83h91.72v94.77h-91.72zM5756.7 2738.83h91.72v94.77h-91.72zM5904.61 2738.83h91.72v94.77h-91.72zM6052.52 2738.83h91.72v94.77h-91.72zM6200.42 2738.83h91.72v94.77h-91.72zM6348.33 2738.83h91.72v94.77h-91.72zM6496.24 2738.83h91.72v94.77h-91.72zM6644.14 2738.83h91.72v94.77h-91.72zM6792.09 2738.83h91.72v94.77h-91.72z"/></g></g><g style="clip-path:url(#id2)"><path class="fil3" d="m4881.34 2491.86 999.65-1011.83 993.52 993.54-420.57 408.38H5253.16z"/></g></g></g><path class="fil3" d="M4012.5 0C6228.54 0 8025 1796.46 8025 4012.5S6228.54 8025 4012.5 8025 0 6228.54 0 4012.5 1796.46 0 4012.5 0z"/></g></svg>